<?xml version="1.0" encoding="UTF-8" standalone="no"?>
<!-- Created with Inkscape (http://www.inkscape.org/) -->

<svg
   version="1.1"
   id="svg1"
   width="32"
   height="32"
   viewBox="0 0 32 32"
   sodipodi:docname="juego.png"
   xmlns:inkscape="http://www.inkscape.org/namespaces/inkscape"
   xmlns:sodipodi="http://sodipodi.sourceforge.net/DTD/sodipodi-0.dtd"
   xmlns="http://www.w3.org/2000/svg"
   xmlns:svg="http://www.w3.org/2000/svg">
  <defs
     id="defs1" />
  <sodipodi:namedview
     id="namedview1"
     pagecolor="#ffffff"
     bordercolor="#000000"
     borderopacity="0.25"
     inkscape:showpageshadow="2"
     inkscape:pageopacity="0.0"
     inkscape:pagecheckerboard="0"
     inkscape:deskcolor="#d1d1d1" />
  <g
     inkscape:groupmode="layer"
     inkscape:label="Image"
     id="g1">
    <g
       id="g2"
       transform="translate(0.6689897,-0.52032516)">
      <path
         style="fill:#b9b9b9;fill-opacity:1"
         d="M 14.46875,29.931429 C 11.959871,29.627053 9.5348039,28.658989 7.5403046,27.16566 6.894873,26.68241 5.8081264,25.634158 5.1979234,24.90625 3.9609047,23.430618 2.9234621,21.394876 2.4306026,19.476022 1.9322555,17.535803 1.8677018,15.251588 2.256095,13.301117 2.5081529,12.035307 2.9291679,10.819818 3.515567,9.6649655 5.8960557,4.9768369 10.731913,2 15.967267,2 c 2.190478,0 4.28705,0.4876922 6.231285,1.4494849 0.847676,0.4193362 1.955906,1.1201494 2.581789,1.6326503 0.504478,0.413089 1.573952,1.4728095 2.001932,1.9836756 2.749282,3.2817272 3.827082,7.7868722 2.875266,12.0184562 -0.468724,2.083852 -1.518992,4.225868 -2.85462,5.821983 -2.206128,2.636389 -5.125699,4.32026 -8.521669,4.914898 -0.809146,0.141682 -3.025278,0.205786 -3.8125,0.110281 z M 17.75,27.841981 c 1.272787,-0.204739 2.395789,-0.568293 3.572991,-1.156701 2.774836,-1.386962 4.973209,-3.930393 5.953557,-6.888034 0.217875,-0.657313 0.495347,-1.910246 0.553728,-2.500371 L 27.859645,17 h -2.982856 -2.982856 l -0.139398,0.527679 c -0.572691,2.16787 -2.331739,3.822622 -4.598285,4.325646 -0.52618,0.116778 -1.720987,0.132085 -2.261281,0.02897 -1.217039,-0.23227 -2.321156,-0.819782 -3.208444,-1.707248 -0.728857,-0.729002 -1.389267,-1.920174 -1.573677,-2.838418 L 10.045243,17 H 7.0538717 C 4.8849822,17 4.0625,17.019275 4.0625,17.070104 c 0,0.286444 0.2287576,1.49641 0.4027367,2.130193 1.3089112,4.768193 5.4144128,8.210324 10.4207313,8.73694 0.685087,0.07207 2.120688,0.02432 2.864032,-0.09526 z m -0.493458,-8.070453 c 1.208599,-0.399446 2.098651,-1.297281 2.531245,-2.553378 0.148733,-0.431868 0.171991,-0.596593 0.171991,-1.21815 0,-0.621557 -0.02326,-0.786282 -0.171991,-1.21815 C 19.354035,13.522389 18.442384,12.607404 17.223651,12.208335 16.797529,12.068804 16.606604,12.042859 16,12.042051 c -0.626678,-8.34e-4 -0.78562,0.02176 -1.240764,0.176388 -1.234474,0.419392 -2.113214,1.303786 -2.547023,2.563411 -0.148733,0.431868 -0.171991,0.596593 -0.171991,1.21815 0,0.621335 0.02331,0.786517 0.171947,1.21875 0.495409,1.440591 1.659599,2.454157 3.120477,2.716747 0.527476,0.09481 1.354057,0.02436 1.923896,-0.163969 z M 15.252157,17.862351 C 14.784736,17.682912 14.311847,17.203797 14.134612,16.730093 13.63755,15.401577 14.595204,14 16,14 c 1.102888,0 2,0.897112 2,2 0,1.408186 -1.421422,2.371556 -2.747843,1.862351 z m -5.005934,-3.221726 c 0.208122,-0.951399 0.755056,-1.944053 1.502152,-2.726323 0.585497,-0.613063 1.072394,-0.963721 1.823405,-1.313197 0.705157,-0.328139 1.144789,-0.45124 1.923907,-0.538712 1.332563,-0.1496082 2.850443,0.237002 4.004313,1.019913 0.413696,0.280696 1.16237,1.019514 1.468274,1.448944 0.449508,0.631022 0.86016,1.56041 1.001071,2.265625 L 22.009932,15 h 2.997866 2.997866 l -0.03244,-0.203125 C 27.955375,14.685156 27.910593,14.382813 27.873705,14.125 27.615889,12.323118 26.789341,10.363129 25.633369,8.8125 25.116702,8.1194407 23.99073,6.9876395 23.297049,6.4640861 19.184866,3.3604307 13.725084,3.2016844 9.457502,6.0616932 7.2881315,7.5155419 5.6628389,9.6267925 4.8149043,12.092415 4.5722236,12.798081 4.3104091,13.938086 4.2225031,14.671875 L 4.1831947,15 h 2.992207 2.9922073 z"
         id="path8" />
      <path
         style="fill:#a3a3a3;fill-opacity:1"
         d="M 14.506695,29.928559 C 12.874077,29.757902 11.000285,29.18456 9.5,28.396614 8.1607507,27.693244 7.0632004,26.869054 5.9641087,25.741387 1.015319,20.663931 0.66382137,12.705516 5.1432629,7.15625 5.7036401,6.462038 6.8777709,5.3403847 7.630474,4.7802043 11.845597,1.6432042 17.45299,1.1231541 22.15625,3.4330309 c 1.512271,0.7427106 2.697857,1.6081443 3.890624,2.8400124 4.9277,5.0892377 5.289925,13.0047197 0.846965,18.5082067 -2.323129,2.877656 -5.624954,4.693893 -9.318773,5.125982 -0.854894,0.100002 -2.224632,0.109523 -3.068371,0.02133 z m 2.564808,-1.99413 c 2.858308,-0.289568 5.412678,-1.521508 7.398583,-3.568243 0.996068,-1.026579 1.573427,-1.832085 2.177878,-3.038485 0.520246,-1.038338 0.946673,-2.375913 1.100741,-3.452701 0.03689,-0.257813 0.08167,-0.560156 0.09951,-0.671875 L 27.880664,17 H 24.88543 21.890197 l -0.105861,0.421435 c -0.434679,1.730463 -1.686401,3.238045 -3.312172,3.989197 -0.782081,0.361344 -1.283529,0.474013 -2.270184,0.510081 C 14.980693,21.965359 14.264609,21.817409 13.25,21.310807 11.726758,20.55024 10.482306,18.977942 10.122498,17.359375 L 10.042609,17 H 7.0525544 C 4.1707975,17 4.0625,17.004244 4.0625,17.117167 c 0,0.06444 0.058999,0.465223 0.131109,0.890625 0.645437,3.807658 3.059638,7.043514 6.525141,8.745923 1.993113,0.979107 4.233181,1.395442 6.352753,1.180714 z M 16.79127,19.902196 c 2.888624,-0.596662 4.145062,-3.939749 2.375882,-6.321666 -0.759751,-1.022883 -2.151019,-1.658137 -3.417571,-1.560468 -1.204925,0.09292 -2.300297,0.696759 -2.97235,1.638557 -0.35603,0.498931 -0.557015,0.95748 -0.679427,1.550111 -0.123548,0.598135 -0.123425,0.983497 5.09e-4,1.59078 0.319187,1.564035 1.51347,2.753504 3.120437,3.10786 0.511594,0.112813 1.009234,0.111176 1.57252,-0.0052 z M 15.337723,17.889605 C 13.95772,17.396146 13.5576,15.626611 14.592105,14.592105 15.006803,14.177407 15.373697,14.03125 16,14.03125 c 0.632924,0 0.993198,0.146159 1.425242,0.578203 0.408688,0.408687 0.542162,0.750561 0.542897,1.390547 7.2e-4,0.626296 -0.145106,0.992756 -0.560244,1.407895 -0.532154,0.532153 -1.378409,0.729069 -2.070172,0.48171 z m -5.039441,-3.405703 c 0.175393,-0.636156 0.555505,-1.444465 0.918449,-1.953086 0.626447,-0.877886 1.688035,-1.690242 2.739777,-2.09655 0.811357,-0.313443 1.322176,-0.390641 2.353812,-0.355723 0.743848,0.02518 1.010339,0.06116 1.47093,0.198624 2.004342,0.598186 3.564151,2.201829 4.10418,4.219513 L 22.020142,15 h 2.992082 2.992081 l -0.03931,-0.328125 c -0.08801,-0.734693 -0.34979,-1.873881 -0.592046,-2.57645 C 25.466411,6.5662524 19.82435,3.2034832 14.103288,4.1864691 9.5065296,4.9762784 5.7655814,8.3850901 4.5681925,12.875 4.406219,13.48236 4.1891477,14.650621 4.1878684,14.921875 c -2.896e-4,0.06142 0.6377255,0.07802 2.9840066,0.07765 l 2.984375,-4.74e-4 z"
         id="path7" />
      <path
         style="fill:#8c8c8c;fill-opacity:1"
         d="M 14.65625,29.93839 C 8.8491242,29.318548 4.0467774,25.29112 2.5278527,19.767061 2.1399398,18.356291 2.0388696,17.587922 2.036449,16.03125 2.033898,14.390693 2.1502158,13.52938 2.5724168,12.0625 3.921267,7.3761046 7.8244793,3.6110943 12.547392,2.4407111 13.903524,2.1046485 14.526585,2.0323693 16.03125,2.0365603 c 1.485179,0.00414 2.285771,0.1012968 3.554016,0.4313163 3.832206,0.9972069 7.190584,3.7434447 8.943534,7.3133734 0.678247,1.381267 1.031839,2.479806 1.297558,4.03125 0.181565,1.060096 0.194628,3.193741 0.02583,4.21875 -0.498956,3.029846 -1.750388,5.567349 -3.78487,7.674508 -2.170005,2.247522 -4.821144,3.619072 -8.004817,4.14124 -0.69727,0.114363 -2.690107,0.167831 -3.40625,0.09139 z m 2.455588,-2.0045 c 4.70984,-0.513037 8.609585,-3.602219 10.136113,-8.029315 0.242256,-0.702569 0.504032,-1.841757 0.592046,-2.57645 L 27.879305,17 h -3.000962 -3.000961 l -0.03771,0.171875 C 21.318831,19.545836 19.479774,21.368599 17.125,21.844778 16.398002,21.99179 15.045308,21.946662 14.379204,21.753173 13.38734,21.465057 12.576877,20.998929 11.820428,20.281523 11.026505,19.528577 10.471,18.59593 10.173282,17.516098 L 10.03125,17.000947 7.0388021,17.000473 4.0463542,17 l 0.042779,0.390625 c 0.3148119,2.874622 1.8187605,5.723858 4.0336619,7.641785 2.5092119,2.172777 5.8321579,3.245356 8.9890429,2.90148 z m -0.27611,-8.027052 C 18.643264,19.523885 19.99783,17.850294 19.99783,16 c 0,-1.475647 -0.88354,-2.911118 -2.187446,-3.553904 -0.291023,-0.143466 -0.726009,-0.30204 -0.966634,-0.352386 -2.833529,-0.592866 -5.348904,1.917972 -4.750588,4.742018 0.452413,2.135387 2.598789,3.525301 4.742566,3.07111 z m -1.460391,-2.006976 c -0.895375,-0.326368 -1.439912,-1.15191 -1.355571,-2.055104 0.06804,-0.728582 0.489346,-1.342156 1.136484,-1.655118 0.453479,-0.219307 1.244234,-0.220494 1.6875,-0.0025 0.398444,0.195921 0.773222,0.570699 0.969143,0.969143 0.217961,0.443266 0.216774,1.234021 -0.0025,1.6875 -0.193406,0.399922 -0.57052,0.776216 -0.962393,0.960299 -0.409886,0.192544 -1.086482,0.236565 -1.47263,0.09581 z m -5.067372,-3.427541 c 0.535014,-2.025244 2.137065,-3.629495 4.229845,-4.23565 0.427905,-0.123939 0.634554,-0.142921 1.55594,-0.142921 0.921386,0 1.128035,0.01898 1.55594,0.142921 2.222284,0.643665 3.818986,2.342746 4.314795,4.591454 L 22.002382,15 h 2.998809 C 26.971804,15 28,14.97843 28,14.937089 28,14.738658 27.789495,13.523994 27.680956,13.096129 26.606766,8.8616317 23.312374,5.5100099 19.149419,4.4163841 18.001289,4.1147652 17.373907,4.0379255 16.0625,4.0383077 14.153981,4.0388639 12.705036,4.3596608 11.03125,5.1522284 7.4602382,6.8431662 4.9758543,10.114889 4.318609,13.992208 4.2464991,14.41761 4.1875,14.818391 4.1875,14.882833 4.1875,14.995757 4.2958082,15 7.1780335,15 h 2.9905335 z"
         id="path6" />
      <path
         style="fill:#767676;fill-opacity:1"
         d="M 15,29.964101 C 13.99094,29.848493 13.563843,29.78277 12.963243,29.65068 8.6851321,28.709795 5.0063073,25.71428 3.2411076,21.734347 1.2727969,17.296468 1.690865,12.253128 4.3582361,8.2579327 8.2839104,2.3780475 15.862976,0.34585886 22.21875,3.4689602 23.588493,4.1420248 24.741509,4.9795427 25.910605,6.1506179 29.216748,9.462359 30.634284,14.156802 29.713421,18.744366 28.549159,24.544494 23.934028,28.929081 18.03125,29.842965 17.428023,29.936359 15.448365,30.01547 15,29.964101 Z m 2.84375,-2.115111 c 4.653102,-0.7945 8.395164,-4.155761 9.628513,-8.648693 C 27.646242,18.566514 27.875,17.356548 27.875,17.070104 27.875,17.019273 27.050894,17 24.877409,17 h -2.997591 l -0.06836,0.265625 c -0.574626,2.232925 -2.06302,3.807544 -4.217712,4.462051 -0.511839,0.155476 -0.655379,0.171212 -1.59375,0.174719 -0.890244,0.0033 -1.103318,-0.01584 -1.558323,-0.140167 -2.087113,-0.570299 -3.719505,-2.193429 -4.258712,-4.234549 L 10.043567,17 H 7.0530335 4.0625 l 2.513e-4,0.140625 c 1.383e-4,0.07734 0.043262,0.407812 0.09583,0.734375 0.8606174,5.346287 5.1036879,9.400545 10.5289187,10.060392 0.651109,0.07919 2.479577,0.02914 3.15625,-0.0864 z m -1,-7.9427 c 1.449324,-0.303245 2.657476,-1.476097 3.033,-2.944383 0.539519,-2.109498 -0.774836,-4.291336 -2.914843,-4.838657 -2.109498,-0.539519 -4.291336,0.774836 -4.838657,2.914843 -0.536371,2.097189 0.768098,4.279747 2.89022,4.835741 0.549535,0.143978 1.238855,0.156202 1.83028,0.03246 z M 15.39374,17.887449 C 14.7148,17.644852 14.282158,17.1886 14.083695,16.505912 c -0.185486,-0.638051 0.02495,-1.422888 0.512138,-1.910079 0.759923,-0.759922 2.048411,-0.759922 2.808334,0 0.130408,0.130409 0.310604,0.394227 0.400435,0.586262 0.337256,0.720968 0.169441,1.652195 -0.400435,2.222072 -0.508343,0.508342 -1.364384,0.714124 -2.010427,0.483282 z m -5.115576,-3.308884 c 0.526062,-2.094261 2.174971,-3.763272 4.288513,-4.340793 0.448683,-0.122602 0.6758,-0.14392 1.527073,-0.143339 1.104348,7.53e-4 1.483493,0.07099 2.34711,0.434772 1.080046,0.454955 2.176185,1.401464 2.765302,2.387821 0.266105,0.445539 0.658863,1.433327 0.75988,1.911099 L 22.002382,15 h 3.00601 3.006011 l -0.04351,-0.359375 C 27.554199,11.19845 25.769976,8.2065351 22.912825,6.1588761 22.186278,5.6381758 20.666706,4.8784173 19.78125,4.593146 15.728643,3.2874992 11.405447,4.1929872 8.1730955,7.0244591 6.0363896,8.8961688 4.5220839,11.797404 4.2141332,14.609375 L 4.1713542,15 h 3.0004746 3.0004742 z"
         id="path5" />
      <path
         style="fill:#606060;fill-opacity:1"
         d="M 15,29.956931 C 13.903117,29.87413 12.427197,29.563471 11.34375,29.187346 10.497676,28.893626 9.0831754,28.187323 8.2949607,27.664992 4.9381617,25.440524 2.7775549,22.021481 2.1478349,17.9375 1.9964357,16.955616 1.9959244,15.050223 2.1467952,14.0625 2.681181,10.563975 4.3820001,7.4926269 7,5.2985559 8.6324654,3.9304333 10.7721,2.8569134 12.8125,2.3822476 c 2.03685,-0.4738399 4.319949,-0.4743099 6.375,-0.00131 3.829336,0.8813731 7.194776,3.4439216 9.077356,6.9117737 1.167082,2.1498517 1.696666,4.2434147 1.696666,6.7072907 0,2.282288 -0.441018,4.181228 -1.436376,6.184761 -1.3977,2.813398 -3.51296,4.937881 -6.308386,6.335893 C 20.029891,29.614323 17.398624,30.137997 15,29.956931 Z m 2.21875,-2.022171 c 1.468848,-0.167683 2.756317,-0.553697 4.093132,-1.227221 3.617969,-1.822831 6.043029,-5.292529 6.534092,-9.348769 l 0.04358,-0.359979 -3.014391,0.01623 -3.014391,0.01623 L 21.742409,17.5 c -0.13092,0.518475 -0.503131,1.340734 -0.813655,1.797463 -0.608358,0.89479 -1.342762,1.531999 -2.322013,2.014701 -0.817314,0.402879 -1.447676,0.565319 -2.356741,0.607314 -0.871648,0.04027 -1.450147,-0.04142 -2.266405,-0.320013 C 13.148068,21.314291 12.463186,20.889428 11.80825,20.25 10.973422,19.434939 10.422386,18.49321 10.153164,17.421435 L 10.047303,17 H 7.0462707 4.0452381 l 0.042562,0.421875 c 0.2406353,2.385171 1.4236853,4.920016 3.1708998,6.794082 2.5163513,2.699044 6.3510321,4.130806 9.9600501,3.718803 z M 17.20471,19.820987 C 18.498715,19.362681 19.403478,18.44116 19.85167,17.125 19.9415,16.861196 19.968727,16.599555 19.968727,16 c 0,-0.599555 -0.02722,-0.861196 -0.117057,-1.125 -0.439432,-1.290434 -1.302398,-2.193907 -2.540479,-2.659728 -0.421578,-0.158616 -0.547149,-0.17627 -1.279937,-0.179946 -0.638153,-0.0032 -0.886262,0.02105 -1.15625,0.112995 -1.316665,0.448415 -2.242276,1.357587 -2.694836,2.646973 -0.185026,0.527155 -0.225101,1.434122 -0.09017,2.040621 0.327788,1.473343 1.452024,2.643178 2.923474,3.042052 0.597773,0.162041 1.650102,0.134677 2.191236,-0.05698 z m -1.658802,-1.885333 c -0.355102,-0.08918 -0.675147,-0.271671 -0.945104,-0.538905 -0.763771,-0.756066 -0.763771,-2.032178 0,-2.795949 0.763888,-0.763888 2.034512,-0.763888 2.7984,0 0.763888,0.763888 0.763888,2.034512 0,2.7984 -0.454327,0.454326 -1.256147,0.686421 -1.853296,0.536454 z m -5.323077,-3.107529 c 0.263364,-1.200393 0.828198,-2.216912 1.710375,-3.078125 0.654994,-0.639429 1.33992,-1.06431 2.175393,-1.349465 0.825689,-0.281815 1.393041,-0.360734 2.297655,-0.319603 2.680903,0.121893 4.829265,1.929651 5.530212,4.653443 L 22.004818,15 h 3.003728 3.003727 l -0.0424,-0.390625 C 27.842814,13.438895 27.414998,11.956673 26.882993,10.84375 24.888827,6.6720687 20.676282,4 16.09375,4 10.657839,4 5.8547775,7.7432598 4.5055484,13.03125 4.3558143,13.618098 4.1875,14.565085 4.1875,14.820687 V 15 h 2.9988092 2.9988088 z"
         id="path4" />
      <path
         style="fill:#494949;fill-opacity:1"
         d="M 14.864497,29.936894 C 9.9160661,29.491827 5.6549207,26.598709 3.496786,22.21875 2.4805845,20.156357 2.042292,18.28242 2.042292,16 c 0,-0.764046 0.036548,-1.409593 0.1077471,-1.903126 C 2.8192958,9.4577523 5.641412,5.5377847 9.78125,3.4969916 11.843107,2.4805694 13.718133,2.0420388 16,2.0425521 c 2.263113,5.091e-4 4.213171,0.4517646 6.176953,1.4293853 2.78006,1.3839845 4.898353,3.4780886 6.28736,6.2155626 1.018501,2.007276 1.490659,4.004092 1.492624,6.3125 0.0019,2.200108 -0.425059,4.089549 -1.369863,6.0625 -1.355451,2.830466 -3.588193,5.076604 -6.430824,6.469406 -1.072897,0.525688 -1.750062,0.775125 -2.80636,1.033741 -1.398328,0.342355 -3.173256,0.489262 -4.485393,0.371247 z m 2.449643,-2.002697 c 3.455293,-0.429316 6.495627,-2.263372 8.490055,-5.121554 1.04644,-1.499635 1.847241,-3.623869 2.04424,-5.422623 l 0.04285,-0.39123 -3.017782,0.01623 -3.017782,0.01623 -0.137132,0.518254 c -0.42352,1.600586 -1.598793,3.017166 -3.124837,3.766429 -0.778656,0.382307 -1.434795,0.555233 -2.285953,0.602465 -2.983638,0.165563 -5.565178,-1.807609 -6.20997,-4.746523 L 10.060118,17 H 7.0523343 4.0445501 l 0.042015,0.453125 c 0.023108,0.249219 0.1137734,0.773277 0.2014778,1.164574 0.9919502,4.425627 4.3967301,7.920634 8.8057071,9.03906 1.212674,0.307619 3.020823,0.426482 4.22039,0.277438 z M 16.9375,19.902689 c 0.724269,-0.170193 1.283649,-0.494387 1.877226,-1.087963 0.824706,-0.824707 1.183426,-1.677907 1.183426,-2.814726 0,-1.136819 -0.35872,-1.990019 -1.183426,-2.814726 C 17.990019,12.360568 17.136819,12.001848 16,12.001848 c -1.136819,0 -1.990019,0.35872 -2.814726,1.183426 -0.824706,0.824707 -1.183426,1.677907 -1.183426,2.814726 0,1.136819 0.35872,1.990019 1.183426,2.814726 0.584049,0.584048 1.148808,0.91567 1.84674,1.084391 0.496995,0.120145 1.40218,0.121842 1.905486,0.0036 z m -1.365827,-1.967291 c -0.563541,-0.116161 -1.147935,-0.607156 -1.401786,-1.177748 -0.180499,-0.405714 -0.18081,-1.120211 -6.6e-4,-1.518629 0.18614,-0.41167 0.596309,-0.831838 1.009429,-1.034039 0.494558,-0.242061 1.150987,-0.240499 1.650576,0.0039 0.407233,0.199241 0.818056,0.622609 0.999587,1.030112 0.199607,0.44808 0.183395,1.13825 -0.03733,1.589407 -0.194909,0.39838 -0.622514,0.819594 -0.999255,0.984323 -0.325399,0.142279 -0.863161,0.196316 -1.220556,0.122647 z m -5.322334,-3.201023 c 0.465425,-1.854704 1.558568,-3.234262 3.20642,-4.046539 0.97792,-0.482047 1.438198,-0.583932 2.637991,-0.583932 0.832724,0 1.083638,0.02278 1.5,0.136183 1.356412,0.369439 2.653515,1.276461 3.402329,2.379138 0.3601,0.530272 0.732993,1.338626 0.874413,1.895545 l 0.11528,0.45398 3.007114,0.01623 L 28,15.0012 27.999749,14.859975 C 27.99961,14.782301 27.956629,14.451563 27.904234,14.125 26.968452,8.292514 21.961373,4 16.09375,4 10.816839,4 6.1302048,7.505896 4.6224266,12.581269 4.4218021,13.256597 4.1875,14.447651 4.1875,14.792181 V 15 h 2.997591 2.997591 z"
         id="path3" />
      <path
         style="fill:#333333;fill-opacity:1"
         d="M 15.0625,29.936182 C 8.9478652,29.517427 3.8123736,25.168844 2.4056696,19.21875 2.0604007,17.758328 1.940838,15.717655 2.120044,14.34375 2.8934775,8.4141271 7.1093568,3.7253021 12.875,2.3822815 15.005402,1.8860361 17.555947,1.93947 19.691376,2.5250847 c 5.343425,1.465367 9.315679,5.9527264 10.126614,11.4397893 0.238446,1.613414 0.162263,3.591158 -0.19877,5.160126 -1.251393,5.438274 -5.707875,9.677294 -11.171069,10.625957 -0.671606,0.116622 -2.21114,0.259651 -2.573151,0.239057 -0.08594,-0.0049 -0.451562,-0.02911 -0.8125,-0.05383 z m 3.22079,-2.147592 c 1.759693,-0.372072 3.429742,-1.118595 4.810696,-2.150417 2.154124,-1.609517 3.76168,-3.986966 4.425135,-6.544423 0.176061,-0.678674 0.355361,-1.647499 0.355679,-1.921875 L 27.875,17 H 24.84375 21.8125 l -5.59e-4,0.140625 c -9.96e-4,0.25054 -0.410177,1.337029 -0.692628,1.839119 -0.382996,0.68082 -1.460737,1.757677 -2.143684,2.141923 -1.736377,0.976939 -3.772438,1.071674 -5.514306,0.256574 -1.707973,-0.79924 -2.842676,-2.198401 -3.335285,-4.112616 L 10.057682,17 H 7.0396655 4.0216491 l 0.023651,0.203125 c 0.3255193,2.795744 1.4218442,5.155872 3.2984503,7.100783 1.9143179,1.983995 4.2411316,3.188272 6.9522926,3.598262 0.982314,0.148549 3.022361,0.09044 3.987247,-0.11358 z M 17.25,19.823928 c 1.18413,-0.388012 2.208005,-1.421512 2.580917,-2.605178 0.197163,-0.62582 0.197163,-1.81168 0,-2.4375 -0.36383,-1.15484 -1.305016,-2.125909 -2.50332,-2.582799 -0.374809,-0.142908 -0.51454,-0.161014 -1.265097,-0.163927 -0.702213,-0.0027 -0.91714,0.01985 -1.28125,0.134559 -1.184102,0.373049 -2.219436,1.399057 -2.604379,2.580917 -0.185444,0.569357 -0.223826,1.532845 -0.08578,2.153333 0.320892,1.442347 1.492849,2.636344 2.944314,2.999688 0.54079,0.135375 1.68477,0.09452 2.214596,-0.07909 z M 15.633234,17.933979 C 14.699275,17.745883 14.04186,16.946934 14.04186,16 c 0,-0.557468 0.176206,-0.978066 0.57814,-1.38 0.789202,-0.789202 1.970798,-0.789202 2.76,0 0.401934,0.401934 0.57814,0.822532 0.57814,1.38 0,1.22571 -1.138638,2.172889 -2.324906,1.933979 z M 10.320091,14.5 c 0.130669,-0.517482 0.502456,-1.339328 0.813139,-1.797463 0.805427,-1.187692 2.067231,-2.077846 3.49177,-2.46331 0.75631,-0.204649 2.16185,-0.202776 2.9375,0.0039 2.096128,0.558561 3.746008,2.185156 4.285853,4.225366 l 0.132366,0.500244 3.00964,0.01623 L 28,15.0012 V 14.819311 C 28,14.719272 27.945101,14.31822 27.878001,13.928086 27.38942,11.087336 25.834164,8.4583554 23.560095,6.629161 21.979357,5.3576628 20.2402,4.5667409 18.09375,4.1432149 17.649129,4.0554846 17.223456,4.0326841 16.0625,4.0344139 14.707178,4.0364333 14.532181,4.0497028 13.796504,4.2062379 10.391388,4.9307677 7.5822782,6.9137922 5.8139686,9.8413187 4.996076,11.195381 4.3450416,13.107363 4.2115089,14.547481 l -0.042071,0.45373 3.0161452,-0.01623 3.0161449,-0.01623 z"
         id="path2" />
    </g>
  </g>
</svg>
